<svg xmlns="http://www.w3.org/2000/svg" class="w-8 h-8 mt-1 border" xmlns:xlink="http://www.w3.org/1999/xlink" xmlns:sketch="http://www.bohemiancoding.com/sketch/ns" viewBox="0 0 30 37.5" version="1.1" x="0px" y="0px"><title>action_042-detail-more-info-others</title><desc>Created with Sketch.</desc><g stroke="none" stroke-width="1" fill="none" fill-rule="evenodd" sketch:type="MSPage"><g sketch:type="MSArtboardGroup" transform="translate(-90.000000, -225.000000)" fill="#000000"><path d="M99,242 C100.104569,242 101,241.104569 101,240 C101,238.895431 100.104569,238 99,238 C97.8954305,238 97,238.895431 97,240 C97,241.104569 97.8954305,242 99,242 Z M105,242 C106.104569,242 107,241.104569 107,240 C107,238.895431 106.104569,238 105,238 C103.895431,238 103,238.895431 103,240 C103,241.104569 103.895431,242 105,242 Z M111,242 C112.104569,242 113,241.104569 113,240 C113,238.895431 112.104569,238 111,238 C109.895431,238 109,238.895431 109,240 C109,241.104569 109.895431,242 111,242 Z" sketch:type="MSShapeGroup"/></g></g><text x="0" y="45" fill="#000000" font-size="5px" font-weight="bold" font-family="'Helvetica Neue', Helvetica, Arial-Unicode, Arial, Sans-serif">Created by Pham Thi Dieu Linh</text><text x="0" y="50" fill="#000000" font-size="5px" font-weight="bold" font-family="'Helvetica Neue', Helvetica, Arial-Unicode, Arial, Sans-serif">from the Noun Project</text></svg>